{
	"asset":{
		"generator":"Khronos glTF Blender I/O v4.3.47",
		"version":"2.0"
	},
	"extensionsUsed":[
		"KHR_materials_clearcoat",
		"KHR_materials_specular",
		"KHR_materials_anisotropy",
		"KHR_materials_ior"
	],
	"scene":0,
	"scenes":[
		{
			"name":"Scene",
			"nodes":[
				3
			]
		}
	],
	"nodes":[
		{
			"mesh":0,
			"name":"Cylinder.002",
			"scale":[
				0.7628336548805237,
				1.363296627998352,
				0.7628336548805237
			],
			"translation":[
				1.215216161654098e-05,
				1.3965009450912476,
				-0.054757148027420044
			]
		},
		{
			"mesh":1,
			"name":"Sphere",
			"scale":[
				1.363296627998352,
				1.363296627998352,
				1.363296627998352
			],
			"translation":[
				1.215216161654098e-05,
				2.1293931007385254,
				-0.28683802485466003
			]
		},
		{
			"children":[
				0,
				1
			],
			"name":"Garden lamp post",
			"scale":[
				0.7335160374641418,
				0.7335160374641418,
				0.7335160374641418
			]
		},
		{
			"children":[
				2
			],
			"name":"Garden lamp post.001"
		}
	],
	"materials":[
		{
			"doubleSided":true,
			"extensions":{
				"KHR_materials_clearcoat":{
					"clearcoatRoughnessFactor":0
				},
				"KHR_materials_specular":{
					"specularColorFactor":[
						1.1659750938415527,
						1.1659750938415527,
						1.1659750938415527
					]
				},
				"KHR_materials_anisotropy":{
					"anisotropyStrength":0.613636314868927
				},
				"KHR_materials_ior":{
					"ior":1.4500000476837158
				}
			},
			"name":"Black Metal Paint"
		},
		{
			"doubleSided":true,
			"name":"Frosty Glass"
		}
	],
	"meshes":[
		{
			"name":"Mesh",
			"primitives":[
				{
					"attributes":{
						"POSITION":0,
						"NORMAL":1,
						"TEXCOORD_0":2,
						"TEXCOORD_1":3,
						"TANGENT":4
					},
					"indices":5,
					"material":0
				}
			]
		},
		{
			"name":"Mesh",
			"primitives":[
				{
					"attributes":{
						"POSITION":6,
						"NORMAL":7,
						"TEXCOORD_0":8,
						"TEXCOORD_1":9,
						"TANGENT":10
					},
					"indices":11,
					"material":1
				}
			]
		}
	],
	"accessors":[
		{
			"bufferView":0,
			"componentType":5126,
			"count":300584,
			"max":[
				0.2587345242500305,
				0.7777884602546692,
				0.7060562968254089
			],
			"min":[
				-0.2587345242500305,
				-1.0243569612503052,
				-0.5629481077194214
			],
			"type":"VEC3"
		},
		{
			"bufferView":1,
			"componentType":5126,
			"count":300584,
			"type":"VEC3"
		},
		{
			"bufferView":2,
			"componentType":5126,
			"count":300584,
			"type":"VEC2"
		},
		{
			"bufferView":3,
			"componentType":5126,
			"count":300584,
			"type":"VEC2"
		},
		{
			"bufferView":4,
			"componentType":5126,
			"count":300584,
			"type":"VEC4"
		},
		{
			"bufferView":5,
			"componentType":5125,
			"count":1625856,
			"type":"SCALAR"
		},
		{
			"bufferView":6,
			"componentType":5126,
			"count":10298,
			"max":[
				0.09971047937870026,
				0.08493977040052414,
				0.5202569365501404
			],
			"min":[
				-0.09971042722463608,
				-0.11503731459379196,
				-0.09971044957637787
			],
			"type":"VEC3"
		},
		{
			"bufferView":7,
			"componentType":5126,
			"count":10298,
			"type":"VEC3"
		},
		{
			"bufferView":8,
			"componentType":5126,
			"count":10298,
			"type":"VEC2"
		},
		{
			"bufferView":9,
			"componentType":5126,
			"count":10298,
			"type":"VEC2"
		},
		{
			"bufferView":10,
			"componentType":5126,
			"count":10298,
			"type":"VEC4"
		},
		{
			"bufferView":11,
			"componentType":5123,
			"count":46848,
			"type":"SCALAR"
		}
	],
	"bufferViews":[
		{
			"buffer":0,
			"byteLength":3607008,
			"byteOffset":0,
			"target":34962
		},
		{
			"buffer":0,
			"byteLength":3607008,
			"byteOffset":3607008,
			"target":34962
		},
		{
			"buffer":0,
			"byteLength":2404672,
			"byteOffset":7214016,
			"target":34962
		},
		{
			"buffer":0,
			"byteLength":2404672,
			"byteOffset":9618688,
			"target":34962
		},
		{
			"buffer":0,
			"byteLength":4809344,
			"byteOffset":12023360,
			"target":34962
		},
		{
			"buffer":0,
			"byteLength":6503424,
			"byteOffset":16832704,
			"target":34963
		},
		{
			"buffer":0,
			"byteLength":123576,
			"byteOffset":23336128,
			"target":34962
		},
		{
			"buffer":0,
			"byteLength":123576,
			"byteOffset":23459704,
			"target":34962
		},
		{
			"buffer":0,
			"byteLength":82384,
			"byteOffset":23583280,
			"target":34962
		},
		{
			"buffer":0,
			"byteLength":82384,
			"byteOffset":23665664,
			"target":34962
		},
		{
			"buffer":0,
			"byteLength":164768,
			"byteOffset":23748048,
			"target":34962
		},
		{
			"buffer":0,
			"byteLength":93696,
			"byteOffset":23912816,
			"target":34963
		}
	],
	"buffers":[
		{
			"byteLength":24006512,
			"uri":"lamp.bin"
		}
	]
}
